Coordinates
version=1
nRows=21
nColumns=34
inDegrees=no

Units are S.I. units (second, meters, Newtons, ...)
If the header above contains a line with 'inDegrees', this indicates whether rotational values are in degrees (yes) or radians (no).

endheader
time	pelvis_tilt	pelvis_list	pelvis_rotation	pelvis_tx	pelvis_ty	pelvis_tz	hip_flexion_r	hip_adduction_r	hip_rotation_r	knee_angle_r	ankle_angle_r	subtalar_angle_r	mtp_angle_r	hip_flexion_l	hip_adduction_l	hip_rotation_l	knee_angle_l	ankle_angle_l	subtalar_angle_l	mtp_angle_l	lumbar_extension	lumbar_bending	lumbar_rotation	arm_flex_r	arm_add_r	arm_rot_r	elbow_flex_r	pro_sup_r	arm_flex_l	arm_add_l	arm_rot_l	elbow_flex_l	pro_sup_l
0	0.150343	-0.019734	0.00567405	-0.185683	1.15595	-0.630562	-0.175751	-0.173257	-0.260644	0.00669852	0.0383355	0.310429	-0.00548152	-0.207646	-0.19125	-0.297855	0.0266943	0.0613928	0.326817	-0.00792549	-0.386306	0.000661095	0.0116243	0.0582902	-0.223471	0.149423	1.79076	2.10798	0.0853761	-0.239012	0.28397	1.81388	2.13034
0.01	0.14693	-0.0202996	0.00486911	-0.186568	1.15591	-0.630415	-0.169977	-0.172722	-0.258719	0.00869729	0.0379937	0.308507	-0.00548034	-0.205568	-0.191678	-0.29606	0.0243682	0.0597783	0.322209	-0.00792077	-0.387833	0.00211773	0.0132274	0.0654605	-0.224473	0.149751	1.79073	2.11155	0.0924109	-0.239084	0.285183	1.81329	2.13749
0.02	0.143226	-0.0208196	0.00392305	-0.187617	1.15587	-0.630228	-0.163427	-0.172316	-0.25685	0.0113868	0.0376677	0.306582	-0.00547916	-0.202138	-0.192353	-0.294704	0.0227148	0.058366	0.317943	-0.00791605	-0.389536	0.0035275	0.0149508	0.0734321	-0.225562	0.150248	1.79046	2.1145	0.100067	-0.239068	0.286401	1.81267	2.14332
0.03	0.13922	-0.0212978	0.00283335	-0.188828	1.15583	-0.630002	-0.156096	-0.172032	-0.255027	0.0147568	0.0373538	0.30465	-0.00547798	-0.197386	-0.193265	-0.293806	0.0217588	0.057154	0.314036	-0.00791132	-0.391409	0.00489398	0.0167967	0.0822103	-0.226741	0.150918	1.78994	2.11682	0.108348	-0.238958	0.287626	1.81202	2.14781
0.04	0.134882	-0.0217448	0.00159713	-0.190197	1.15578	-0.62974	-0.147959	-0.171858	-0.253219	0.0187851	0.0370406	0.302689	-0.0054768	-0.191357	-0.194399	-0.293391	0.0215753	0.0561422	0.31051	-0.00790659	-0.39343	0.00622844	0.01877	0.0918087	-0.228021	0.151766	1.78917	2.11855	0.117261	-0.23874	0.288855	1.81133	2.151
0.05	0.13016	-0.0221778	0.000218678	-0.191718	1.15571	-0.629446	-0.13896	-0.171772	-0.251384	0.0234461	0.0367088	0.300642	-0.00547562	-0.184084	-0.195738	-0.293484	0.022302	0.0553369	0.307387	-0.00790186	-0.395562	0.00755136	0.0208762	0.102248	-0.229418	0.152789	1.78817	2.11977	0.126828	-0.238387	0.290089	1.81059	2.15298
0.06	0.124986	-0.0226176	-0.00128299	-0.193386	1.15563	-0.629123	-0.129015	-0.17175	-0.249464	0.0287209	0.0363336	0.298414	-0.00547444	-0.175556	-0.197274	-0.294093	0.0241265	0.0547534	0.304678	-0.00789713	-0.397755	0.00888768	0.023116	0.113551	-0.23095	0.153971	1.78695	2.12057	0.137082	-0.237871	0.291337	1.80975	2.15388
0.07	0.119277	-0.0230708	-0.00287476	-0.195203	1.15552	-0.628778	-0.118001	-0.17177	-0.247393	0.0346053	0.0358901	0.295865	-0.00547326	-0.165709	-0.199005	-0.295196	0.0272481	0.0544118	0.302383	-0.00789239	-0.399933	0.0102593	0.0254826	0.125733	-0.232636	0.155288	1.78552	2.12107	0.148072	-0.237171	0.292615	1.8088	2.15383
0.08	0.112919	-0.0235267	-0.00451732	-0.197171	1.15537	-0.628412	-0.10577	-0.171815	-0.245082	0.0411146	0.0353605	0.292816	-0.00547209	-0.154429	-0.200933	-0.296739	0.0318257	0.0543284	0.300481	-0.00788765	-0.402009	0.0116714	0.0279651	0.138796	-0.234484	0.156702	1.78394	2.12136	0.159849	-0.236279	0.293952	1.80771	2.15298
0.09	0.105778	-0.023969	-0.00618138	-0.199296	1.15515	-0.628021	-0.0921542	-0.17188	-0.24242	0.0482784	0.0347393	0.289071	-0.00547091	-0.141589	-0.203054	-0.298644	0.0379238	0.0545025	0.298924	-0.00788291	-0.403885	0.0131011	0.0305595	0.152729	-0.236489	0.158166	1.78226	2.1215	0.172462	-0.235208	0.29538	1.80646	2.15144
0.1	0.0977344	-0.024378	-0.00786488	-0.201584	1.15487	-0.627598	-0.076995	-0.17196	-0.239272	0.0561352	0.0340383	0.284447	-0.00546974	-0.127085	-0.205359	-0.300823	0.0454902	0.0549047	0.297631	-0.00787817	-0.405473	0.0145034	0.0332798	0.167507	-0.238621	0.159626	1.78055	2.12152	0.185951	-0.233991	0.296928	1.80506	2.14933
0.11	0.0886964	-0.0247354	-0.00959656	-0.204043	1.15449	-0.62713	-0.0601585	-0.172051	-0.235505	0.064725	0.0332864	0.27881	-0.00546856	-0.110871	-0.207837	-0.303184	0.0543658	0.055476	0.29649	-0.00787343	-0.406706	0.015823	0.0361596	0.1831	-0.240834	0.161029	1.77888	2.12145	0.200341	-0.232679	0.298617	1.80352	2.14679
0.12	0.0786057	-0.0250289	-0.011427	-0.206679	1.15401	-0.626604	-0.0415521	-0.172136	-0.231014	0.0740802	0.0325277	0.272101	-0.00546739	-0.0929596	-0.210478	-0.305644	0.0643128	0.0561359	0.295373	-0.0078687	-0.407545	0.0170086	0.0392446	0.19948	-0.243071	0.162332	1.77731	2.12133	0.215641	-0.231329	0.300445	1.80186	2.144
0.13	0.0674414	-0.0252551	-0.0134136	-0.209496	1.15342	-0.626005	-0.0211366	-0.172191	-0.225745	0.0842146	0.0318181	0.264355	-0.00546621	-0.0734304	-0.213276	-0.308132	0.075048	0.0567976	0.294161	-0.00786396	-0.407978	0.0180216	0.0425821	0.216624	-0.245282	0.163507	1.77589	2.12125	0.231844	-0.229995	0.302393	1.80009	2.14122
0.14	0.0552237	-0.0254189	-0.0156047	-0.212495	1.1527	-0.625321	0.00105922	-0.172178	-0.219718	0.0951111	0.0312179	0.255707	-0.00546504	-0.0524202	-0.21623	-0.310586	0.0862748	0.057383	0.292764	-0.00785922	-0.408028	0.0188394	0.0462109	0.23452	-0.247433	0.164546	1.77464	2.12134	0.248936	-0.228716	0.304422	1.79824	2.13873
0.15	0.0420157	-0.0255306	-0.0180251	-0.215673	1.15186	-0.624543	0.0249306	-0.172056	-0.213023	0.106715	0.0307805	0.246362	-0.00546387	-0.0301157	-0.219343	-0.312957	0.0977123	0.0578351	0.29113	-0.00785448	-0.407756	0.0194539	0.0501502	0.253164	-0.249507	0.165454	1.77361	2.12169	0.266894	-0.227515	0.306486	1.79633	2.13678
0.16	0.027917	-0.0256022	-0.0206691	-0.219027	1.15089	-0.623663	0.0503052	-0.171779	-0.205804	0.118936	0.030542	0.236567	-0.0054627	-0.00673107	-0.222623	-0.315198	0.109121	0.0581275	0.289252	-0.00784974	-0.407255	0.0198693	0.0543925	0.272561	-0.251506	0.166258	1.77281	2.12233	0.285697	-0.226394	0.308544	1.79438	2.13543
0.17	0.0130484	-0.0256443	-0.0235027	-0.222551	1.14978	-0.622677	0.0769684	-0.171309	-0.198236	0.131661	0.0305147	0.226563	-0.00546153	0.0175202	-0.226078	-0.317263	0.120323	0.0582671	0.287153	-0.007845	-0.406643	0.0200971	0.0589031	0.292721	-0.25345	0.167001	1.77228	2.12323	0.305319	-0.22534	0.310557	1.79246	2.13463
0.18	-0.00246309	-0.0256623	-0.0264745	-0.226236	1.14855	-0.621581	0.104693	-0.170618	-0.190501	0.144773	0.0306903	0.216576	-0.00546036	0.0424477	-0.229716	-0.319097	0.131212	0.0582851	0.284865	-0.00784025	-0.406037	0.0201465	0.0636242	0.313662	-0.255361	0.16774	1.77204	2.12438	0.325733	-0.224335	0.312485	1.79062	2.13426
0.19	-0.0184947	-0.025652	-0.0295241	-0.230077	1.14719	-0.620372	0.133261	-0.169696	-0.182781	0.158166	0.031048	0.206813	-0.00545919	0.0678963	-0.233532	-0.320622	0.141746	0.058222	0.282385	-0.00783551	-0.405553	0.0200171	0.0684792	0.335399	-0.257256	0.168535	1.7721	2.12573	0.346907	-0.223372	0.314292	1.78894	2.13413
0.2	-0.0349369	-0.0256049	-0.0325882	-0.234064	1.1457	-0.619047	0.16248	-0.168547	-0.175243	0.171753	0.0315587	0.197449	-0.00545802	0.0937589	-0.237517	-0.321727	0.151951	0.0581182	0.279663	-0.00783077	-0.405286	0.0197008	0.0733831	0.357947	-0.259134	0.16944	1.77248	2.12719	0.368804	-0.222461	0.315954	1.7875	2.13401
